<?xml version="1.0" encoding="UTF-8"?>
<svg width="127px" height="63px" viewBox="0 0 127 63" version="1.1" xmlns="http://www.w3.org/2000/svg" xmlns:xlink="http://www.w3.org/1999/xlink">
    <!-- Generator: Sketch 63.1 (92452) - https://sketch.com -->
    <title>buttress-footer</title>
    <desc>Created with Sketch.</desc>
    <defs>
        <circle id="path-1" cx="90" cy="90" r="90"></circle>
        <filter x="-2.8%" y="-2.8%" width="107.8%" height="107.8%" filterUnits="objectBoundingBox" id="filter-2">
            <feOffset dx="2" dy="2" in="SourceAlpha" result="shadowOffsetOuter1"></feOffset>
            <feGaussianBlur stdDeviation="2" in="shadowOffsetOuter1" result="shadowBlurOuter1"></feGaussianBlur>
            <feColorMatrix values="0 0 0 0 0   0 0 0 0 0   0 0 0 0 0  0 0 0 0.1 0" type="matrix" in="shadowBlurOuter1"></feColorMatrix>
        </filter>
        <polygon id="path-3" points="0.0686486486 0.776432432 126.111 0.776432432 126.111 62.3643243 0.0686486486 62.3643243"></polygon>
    </defs>
    <g id="Symbols" stroke="none" stroke-width="1" fill="none" fill-rule="evenodd">
        <g id="UI/Footer--Copy-2" transform="translate(-234.000000, -167.000000)">
            <rect id="Rectangle" fill="#F6F6F6" transform="translate(800.500000, 206.000000) scale(1, -1) translate(-800.500000, -206.000000) " x="0" y="40" width="1601" height="332"></rect>
            <g id="Group-14" transform="translate(200.000000, 109.000000)">
                <g id="Oval">
                    <use fill="black" fill-opacity="1" filter="url(#filter-2)" xlink:href="#path-1"></use>
                    <use fill="#FFFFFF" fill-rule="evenodd" xlink:href="#path-1"></use>
                </g>
                <g id="buttress-footer" transform="translate(34.000000, 58.000000)">
                    <mask id="mask-4" fill="white">
                        <use xlink:href="#path-3"></use>
                    </mask>
                    <g id="Clip-2"></g>
                    <path d="M0,0.776432432 L0,62.4324324 L67.3717838,62.4324324 L29.3633153,62.4324324 L29.3633153,27.6484865 L0,0.776432432 Z M4.18756757,10.2094054 L24.8977207,29.1945405 L4.18756757,29.1945405 L4.18756757,10.2094054 Z M4.22875676,33.3514054 L25.5521712,33.3514054 L4.22875676,56.2414054 L4.22875676,33.3514054 Z M29.3564505,35.3867027 L29.3564505,58.278973 L8.03646847,58.278973 L29.3564505,35.3867027 Z M33.5932162,33.3514054 L33.5932162,37.17 L43.1742793,45.9536757 L46.0243423,42.8944865 L35.5943243,33.3514054 L33.5932162,33.3514054 Z M46.2508829,48.7756216 L56.617973,58.278973 L58.7209099,58.278973 L58.7209099,54.5137297 L49.1020901,45.7107568 L46.2508829,48.7756216 L46.2508829,48.7756216 Z" id="Fill-1" fill="#D54839" mask="url(#mask-4)"></path>
                    <path d="M29.3656036,0.776432432 L29.3656036,27.6484865 L35.5943243,33.3514054 L54.9143423,33.3514054 L46.0243423,42.8944865 L49.1032342,45.7107568 L58.7209099,35.3867027 L58.7209099,54.5137297 L58.7392162,54.5318919 L58.7392162,27.6598378 L29.3656036,0.776432432 Z M33.552027,10.2094054 L54.2598919,29.1945405 L33.552027,29.1945405 L33.552027,10.2094054 Z M62.967973,33.3514054 L62.967973,37.1790811 L72.5444595,45.9582162 L75.3945225,42.899027 L64.9564955,33.3514054 L62.967973,33.3514054 Z M33.5463063,58.278973 L56.617973,58.278973 L37.3986396,58.278973 L46.2508829,48.7756216 L43.1742793,45.9536757 L33.5932162,56.2414054 L33.5932162,37.17 L33.5463063,37.1245946 L33.5463063,58.278973 Z M75.6199189,48.7801622 L85.9801441,58.278973 L88.0945225,58.278973 L88.0945225,54.5228108 L78.4734144,45.7187027 L75.6199189,48.7801622 L75.6199189,48.7801622 Z" id="Fill-3" fill="#9E2450" mask="url(#mask-4)"></path>
                    <path d="M29.3656036,62.4324324 L67.3729279,62.4324324 L58.7392162,62.4324324 L58.7392162,54.5318919 L58.7209099,54.5137297 L58.7209099,58.278973 L33.5463063,58.278973 L33.5463063,37.1245946 L33.5932162,37.17 L33.5932162,33.3514054 L35.5943243,33.3514054 L29.3656036,27.6496216 L29.3656036,62.4324324 Z M43.1742793,45.9536757 L46.2508829,48.7756216 L49.1032342,45.713027 L46.0243423,42.8944865 L43.1742793,45.9536757 L43.1742793,45.9536757 Z" id="Fill-4" fill="#D92C41" mask="url(#mask-4)"></path>
                    <path d="M58.7392162,0.776432432 L58.7392162,27.6598378 L64.9564955,33.3514054 L84.2913874,33.3514054 L75.3945225,42.899027 L78.4734144,45.7187027 L88.0945225,35.3867027 L88.0945225,54.5228108 L96.7362432,62.4324324 L126.111,62.4324324 L58.7392162,0.776432432 Z M62.9267838,10.2094054 L83.6369369,29.1945405 L62.9267838,29.1945405 L62.9267838,10.2094054 Z M92.2809459,37.1245946 L115.354901,58.278973 L92.2809459,58.278973 L92.2809459,37.1245946 Z M62.9084775,58.278973 L85.9812883,58.278973 L66.7756847,58.278973 L75.6199189,48.7801622 L72.5433153,45.9582162 L62.967973,56.2414054 L62.967973,37.1790811 L62.9084775,37.1245946 L62.9084775,58.278973 L62.9084775,58.278973 Z" id="Fill-5" fill="#00A1B6" mask="url(#mask-4)"></path>
                    <path d="M58.7392162,54.5318919 L67.3729279,62.4324324 L96.7362432,62.4324324 L88.0945225,54.5228108 L88.0945225,58.278973 L62.9084775,58.278973 L62.9084775,37.1245946 L62.967973,37.1813514 L62.967973,33.3491351 L64.9564955,33.3491351 L58.7392162,27.6598378 L58.7392162,54.5318919 Z M72.5433153,45.9582162 L75.6199189,48.7801622 L78.4734144,45.7187027 L75.3945225,42.9012973 L72.5433153,45.9582162 L72.5433153,45.9582162 Z" id="Fill-6" fill="#862770" mask="url(#mask-4)"></path>
                    <polyline id="Fill-7" fill="#D52C47" mask="url(#mask-4)" points="58.7392162 62.4324324 67.3729279 62.4324324 58.7392162 54.5318919 58.7392162 62.4324324"></polyline>
                </g>
            </g>
        </g>
    </g>
</svg>